<svg
  xmlns="http://www.w3.org/2000/svg" viewBox="0 0 26 21">
  <path fill="#FFF" d="M18.3528 20.8l-1.0886-.025s.0928-3.8172.1187-4.2265c.031-.4743.24-.7804.4264-1.0517l.24-.3694c1.4104-2.2822 1.8335-2.6358 2.3159-2.6.949.0724 1.4464-.0832 1.7006-.2246l.372-.203c.5334-.2896 2.0726-1.1274 2.4948-1.4502 0-.6939-.5484-3.303-.882-3.9096-.2007-.366-.6956-1.1115-1.137-1.7688-.5744-.8636-.9055-1.3628-1.0058-1.5916-.107-.1772-.8135-.6348-1.1162-.8295-.1589-.104-.301-.1955-.4013-.267-.143-.1024-.4774-.3579-.5777-.327-.3863.0582-.9431.5283-.9097 1.0566.0092.1539.1296.332.332.4867.3235.2496.6897.3311.8176.3112.6037-.1215 1.2608-.2521 1.6847.431.2784.445.6605 1.0574.6747 1.9094.025 1.3462.0727 2.1257.1463 2.3246.173.3303.158.614-.0485.8237-.3102.3178-.7148.1181-.9096.024-.276-.1355-.842-.3044-1.1789-.1921-.2842.0982-.3779.1855-.4974.2962-.0943.092-.199.173-.3119.2413-.4047.233-.801-.0242-1.3987-.4169-.2768-.1797-.8486-.5549-1.0401-.5574-.5067.0241-.7508.0532-.8394.1032-.3763.2038-.7659.015-1.4966-.7189-.7315-.7346-.9339-1.1681-.719-1.5475.0293-.054.1087-.1689.2199-.3245.2809-.3927 1.1337-1.59 1.1337-2.0858 0-1.134-.3202-3.036-2.4714-3.036-2.1512 0-2.4723 1.902-2.4723 3.036 0 .4959.8528 1.6931 1.1346 2.0867.1103.1547.1897.2695.2198.322.215.381.0126.8145-.719 1.5491-.7315.7347-1.1236.9219-1.494.7197-.092-.05-.3361-.0799-.8445-.1032-.1897.0017-.7608.3761-1.0375.5566-.5995.3927-.995.6498-1.3988.416a1.7204 1.7204 0 0 1-.3118-.2404c-.1204-.1107-.214-.198-.4992-.297-.3352-.1115-.9012.0574-1.178.1922-.1914.0948-.596.2945-.9088-.0233-.2065-.2097-.2224-.4934-.0393-.842.0636-.1806.112-.9601.1363-2.303.015-.8545.3971-1.466.6496-1.8712.4515-.7213 1.1053-.5923 1.6304-.4883.1672.0299.4824-.0525.8126-.3204.2508-.2013.4072-.4326.4164-.6165.0318-.5175-.5267-.8445-.9122-.9027-.0878-.0108-.4314.2255-.5743.327-.1004.0715-.2433.1639-.4014.2662-.301.1955-1.0066.6531-1.122.8437-.0944.2163-.4247.7147-.9974 1.575-.4414.6572-.9406 1.406-1.1412 1.7721-.3345.6107-.8896 3.2506-.882 3.9229.356.2729 1.9488 1.1398 2.493 1.4352l.3763.2055c.2533.1406.7525.2953 1.6972.2238.4824-.0333.9063.3162 2.3143 2.5917l.245.3794c.1839.2704.3937.5765.4238 1.0508.026.4077.1187 4.2249.1187 4.2249l-1.0885.025s-.0911-3.7748-.1187-4.18c-.01-.1723-.0753-.2746-.2366-.51l-.271-.421c-.897-1.4444-1.2833-1.9195-1.4505-2.07-.9055.0474-1.6329-.0741-2.1612-.3661l-.3713-.2014C.736 11.7986.272 11.4708.1031 11.2104c-.4222-.6532.5685-4.4063.8879-4.9895.2257-.4094.7148-1.144 1.1889-1.8554.3561-.5325.8452-1.2638.9121-1.4177.1831-.4177.745-.8054 1.5208-1.308.1455-.0931.2717-.1755.362-.2395.393-.2804.842-.5966 1.3737-.5175.9548.1439 1.902.946 1.8368 2.0384-.03.5191-.3402 1.0291-.8711 1.4393-.4122.317-1.0451.6157-1.5769.5142-.2491-.05-.4832-.0982-.55-.0807-.2467.4185-.5.8245-.5101 1.3761-.0167.8836-.0401 1.501-.0794 1.937.4013-.1058.8845-.1582 1.3377-.001.4665.1615.6973.3562.8511.496.1187-.07.276-.1731.4013-.2563.5685-.3727 1.1346-.7638 1.688-.7347.48.0217.796.05 1.0485.1248a5.8413 5.8413 0 0 0 .8695-.8719.2245.2245 0 0 0-.021-.0283c-.6939-.9734-1.3351-1.976-1.3351-2.7148C9.4378 3.1541 9.6953 0 12.9994 0c3.3059 0 3.5625 3.1541 3.5625 4.1209 0 .7388-.6412 1.7414-1.3343 2.7148a.2318.2318 0 0 0-.0218.0283c.1982.2596.6204.6839.8695.872.2509-.075.5677-.1032 1.0493-.1249.5384-.0216 1.1187.3628 1.688.7347.1254.0832.2826.1864.4013.2562.153-.1397.3846-.3344.8528-.4958.454-.1598.9498-.1024 1.3394-.0025-.0426-.441-.0669-1.0542-.0828-1.9303-.01-.5557-.2642-.9618-.4857-1.3195-.092-.0774-.3244-.0283-.4933.005-.5685.1098-1.249-.0957-1.775-.5009-.4598-.3528-.7274-.807-.7541-1.2813-.0669-1.1198.913-2.055 1.836-2.194.5434-.0765.9824.238 1.3745.5176.0895.064.2174.1464.362.2396.775.5025 1.3377.8902 1.52 1.307.0702.1565.5576.8895.9155 1.4236.4724.7089.9615 1.4427 1.1855 1.8504.3194.5832 1.311 4.3363.888 4.9886-.169.2613-.6321.589-2.9372 1.842l-.3645.2006c-.5326.292-1.2625.4135-2.1654.366-.1672.1507-.556.6274-1.4531 2.0776l-.2675.4127c-.1614.2354-.2266.3377-.2375.5091-.0276.4069-.1187 4.1825-.1187 4.1825z"/>
</svg>