<svg
  xmlns="http://www.w3.org/2000/svg" viewBox="0 0 20 25">
  <path fill="#FFF" d="M16.2584 24.4444h-2.5273a.5706.5706 0 0 1-.4091-.173.5771.5771 0 0 1-.163-.4153l.2946-13.2024-3.2681-2.2206a.5737.5737 0 0 1-.1554-.157.578.578 0 0 1-.1189-.3835l.39-7.231c.0164-.3053.2674-.5444.5714-.5444h1.4063c.316 0 .5723.2577.5723.5755v4.8817h.6471L13.615.679c.0074-.3124.2613-.5617.572-.5618h1.5363c.3108 0 .5647.2494.5721.5618l.1166 4.8955h.6472V.6926c0-.3178.2562-.5755.5723-.5755h1.4713c.306 0 .5579.2421.5717.5495l.325 7.2311a.5483.5483 0 0 1 .0005.026v.0325a.5764.5764 0 0 1-.2484.4745l-3.2155 2.2202.2946 13.205a.5772.5772 0 0 1-.163.4155.5707.5707 0 0 1-.4093.173zm-1.942-1.1509h1.3567l-.2884-12.9278a.5763.5763 0 0 1 .2482-.4874l3.21-2.2164-.2873-6.3936h-.352V6.15c0 .3178-.2562.5755-.5723.5755h-1.7781c-.3108 0-.5647-.2494-.5721-.5618l-.1166-4.8955h-.4188l-.1167 4.8955c-.0074.3124-.2614.5618-.572.5618h-1.7782c-.316 0-.5722-.2577-.5722-.5755V1.2681h-.292l-.3439 6.3774 3.2824 2.2303a.5763.5763 0 0 1 .2517.4898l-.2885 12.9279zM5.8147.5589a.5745.5745 0 0 0-.5056-.5512A.5746.5746 0 0 0 5.2196 0c-.0266 0-.0527.0016-.0792.002a.5633.5633 0 0 0-.0823.0022C2.2546.0904 0 2.4092 0 5.249v4.8459c0 .1526.0603.299.1676.4069a.5706.5706 0 0 0 .4047.1685h2.335l-.3802 13.182a.5772.5772 0 0 0 .1615.4176.5707.5707 0 0 0 .4105.1745h2.9382a.5707.5707 0 0 0 .4115-.1755.5773.5773 0 0 0 .1604-.4197L5.8148.559zM2.1398 2.57c-.3555.7147-.551 1.5177-.551 2.3596v4.5899h-.4443V5.249c0-1.0237.376-1.96.9953-2.679zm1.5484 20.7236l.38-13.182c.0002-.0027-.0002-.0055 0-.0083 0-.0028.0003-.0055.0003-.0083 0-.007-.0008-.0138-.001-.0208-.0004-.01-.0007-.0201-.0015-.03-.0008-.0095-.0021-.0187-.0034-.028a.5873.5873 0 0 0-.0045-.0293c-.0017-.0093-.004-.0183-.0062-.0274a.5286.5286 0 0 0-.007-.0277.5236.5236 0 0 0-.009-.027c-.0031-.0088-.006-.0175-.0095-.026-.0036-.009-.0077-.0176-.0117-.0263-.0037-.0081-.0075-.0163-.0116-.0242-.0044-.0086-.0093-.0168-.0141-.0251-.0045-.0076-.009-.0154-.0138-.0228a.6649.6649 0 0 0-.0163-.0234c-.0052-.0072-.0104-.0145-.016-.0215-.0058-.0073-.012-.0143-.0182-.0213a.5313.5313 0 0 0-.0182-.0202c-.0064-.0066-.013-.0128-.0197-.0191a.5511.5511 0 0 0-.0204-.0187c-.007-.0058-.014-.0113-.0211-.0168-.0075-.0057-.015-.0116-.0227-.017-.0073-.005-.0148-.0098-.0224-.0145a.5676.5676 0 0 0-.0243-.015c-.0078-.0044-.016-.0083-.024-.0123-.0084-.0043-.017-.0087-.0257-.0125-.0083-.0037-.0169-.007-.0255-.0103-.0088-.0034-.0176-.0068-.0265-.0098a.5186.5186 0 0 0-.0273-.0079c-.009-.0024-.018-.005-.0272-.007-.0095-.0021-.0192-.0037-.029-.0053-.009-.0016-.0182-.0031-.0276-.0043-.0099-.0011-.0198-.0017-.0298-.0024-.0069-.0004-.0137-.0014-.0206-.0016l-.0083.0002c-.0027 0-.0055-.0005-.0083-.0005h-.763V4.9295c0-1.4624.7532-2.7755 1.9657-3.5082l.746 21.8722H3.6882z"/>
</svg>