<svg
  xmlns="http://www.w3.org/2000/svg" viewBox="0 0 24 24">
  <path fill="#FFF" d="M20.5063 9.186h-1.2206v-.3743c0-.8847-.721-1.6044-1.6071-1.6044H1.6072C.721 7.2073 0 7.927 0 8.8117v5.0271c0 2.4426.9617 4.9693 2.6386 6.9324C4.4171 22.8533 6.7144 24 9.1071 24h1.0714c2.3928 0 4.69-1.1467 6.4686-3.2288 1.1464-1.3421 1.9583-2.9477 2.3574-4.6098h1.5018c1.9264 0 3.4937-1.5645 3.4937-3.4876 0-1.9232-1.5672-3.4877-3.4937-3.4877zM15.832 20.0773c-1.5717 1.8399-3.5795 2.8532-5.6533 2.8532H9.1072c-2.074 0-4.0817-1.0133-5.6533-2.8532-1.5141-1.7725-2.3825-4.0463-2.3825-6.2384v-5.027c0-.295.2404-.5349.5358-.5349h3.3922v2.6039H3.0212a.5352.5352 0 0 0-.5358.5347v5.0806c0 .2954.2399.5348.5358.5348h5.0892a.5352.5352 0 0 0 .5358-.5348v-5.0806a.5352.5352 0 0 0-.5358-.5347H6.068V8.2769h11.6107c.2954 0 .5357.24.5357.5348V13.839c0 2.192-.8683 4.4658-2.3824 6.2383zm-8.2572-8.1269v4.011H3.557v-4.011h4.0178zm12.9316 3.1416h-1.2206v-4.8362h1.2206c1.3356 0 2.4223 1.0847 2.4223 2.4181 0 1.3333-1.0866 2.418-2.4223 2.418zM4.8583 2.6569c.0206.0177.5039.4436.5039 1.181 0 .3853-.094.5693-.224.8241-.1474.289-.3309.6486-.3309 1.256 0 .2953.2399.5347.5357.5347a.5352.5352 0 0 0 .5357-.5348c0-.3506.0899-.5267.2142-.7704.1518-.2975.3406-.6676.3406-1.3096 0-1.2523-.851-1.971-.8873-2.001 0 0-.4193-.4044-.739-.1231-.4687.4125.0552.9465.0552.9465l-.004-.0035zm5.0373 1.9423c0 1.0264-.8031 1.4457-.8327 1.4608 0 0-.5159.3574-.2712.7764.2447.419.7377.1865.7377.1865.0586-.0283 1.4377-.7137 1.4377-2.4237 0-.832-.4373-1.3286-.7886-1.7277-.2821-.3204-.4417-.515-.4417-.7858 0-.8536.3896-1.0036.4062-1.0096a.1349.1349 0 0 1-.0222.0063s.6147-.2615.491-.7554c-.1237-.494-.7534-.2816-.7534-.2816-.4431.1117-1.193.6672-1.193 2.0403 0 .6873.3927 1.1335.7083 1.492.3236.3675.522.6135.522 1.0215zm3.1503-1.9389c.005.0042.4998.4343.4998 1.1776 0 .3853-.094.5693-.224.8241-.1474.289-.3309.6486-.3309 1.256 0 .2953.24.5347.5357.5347a.5353.5353 0 0 0 .5358-.5348c0-.3506.0898-.5267.2142-.7704.1517-.2975.3406-.6676.3406-1.3096 0-1.2523-.8512-1.971-.8874-2.001a.5363.5363 0 0 0-.7544.0704.5342.5342 0 0 0 .0706.753z"/>
</svg>