<svg
  xmlns="http://www.w3.org/2000/svg" viewBox="0 0 19 24">
  <g fill="#FFF" stroke="#FFF">
    <path d="M14.9136 9.3082H4.7519a3.5534 3.5534 0 0 1-2.2594-.813 3.5672 3.5672 0 0 1-1.223-2.0245c-.0852-.4192.0069-.8798.2625-1.2967.0046-.007.0093-.0161.0162-.023.0207-.023 2.0337-2.3378 2.4897-3.7036.0276-.0852.1198-.129.205-.1013.0852.0276.129.1197.1013.205-.4652 1.391-2.3746 3.6068-2.5427 3.8025-.2073.3432-.2833.7186-.2142 1.0526C1.896 7.901 3.2272 8.9858 4.752 8.9858h10.1617c1.474 0 2.7592-.995 3.1231-2.423.106-.4007.0438-.8291-.175-1.2069-.06-.0575-.1497-.1658-.3225-.3754a23.1972 23.1972 0 0 1-.7416-.9512c-.5113-.6933-1.1815-1.686-1.4602-2.476a.16.16 0 0 1 .099-.205.16.16 0 0 1 .205.0991c.4721 1.3359 2.1834 3.3926 2.4299 3.6644a.1606.1606 0 0 1 .053.0576c.0045.0069.0068.0138.0114.0207.2672.4537.341.972.2142 1.458-.4007 1.5638-1.8149 2.6601-3.4363 2.6601z"/>
    <path d="M9.5679 5.2316c-.9812 0-1.9209-.3824-2.644-1.0756C6.2051 3.4673 5.756 2.53 5.657 1.5165a.1623.1623 0 0 1 .145-.1773.1623.1623 0 0 1 .1774.145c.1889 1.9532 1.7343 3.425 3.5884 3.425 1.8517 0 3.3949-1.4718 3.586-3.425a.1626.1626 0 0 1 .1774-.145.1626.1626 0 0 1 .145.1773c-.099 1.0157-.5504 1.9531-1.2667 2.6395-.7255.6932-1.6629 1.0756-2.6417 1.0756zm8.4112 17.7507a.1598.1598 0 0 1-.122-.0553c-.1152-.1313-2.8122-3.2475-3.3305-5.355-.2464-1.0041-.3593-2.5519-.3109-4.247.0484-1.6767.2465-3.2176.5436-4.224a.161.161 0 0 1 .3086.092c-.6127 2.0844-.7278 6.274-.228 8.303.4998 2.0315 3.2337 5.1892 3.2613 5.219a.1632.1632 0 0 1-.0161.2281.1554.1554 0 0 1-.106.0392zm-16.7971 0a.1674.1674 0 0 1-.106-.0392c-.0668-.0576-.0737-.1612-.0161-.228.0276-.0323 2.7615-3.1876 3.2613-5.219.4998-2.0292.3846-6.2187-.228-8.303a.161.161 0 0 1 .3086-.0922c.2971 1.0065.4952 2.5474.5436 4.224.0483 1.6952-.0645 3.243-.311 4.2472-.5182 2.1074-3.2152 5.2236-3.3304 5.3549a.1633.1633 0 0 1-.122.0553zm8.379-3.1393c-.4008 0-.7278-.3132-.7278-.6956 0-.3823.327-.6955.7278-.6955.4007 0 .7278.3132.7278.6955 0 .3824-.327.6956-.7278.6956zm0-1.0687c-.2234 0-.4054.1682-.4054.3731 0 .205.182.3732.4054.3732s.4053-.1682.4053-.3732-.182-.373-.4053-.373z"/>
  </g>
</svg>