<svg
  xmlns="http://www.w3.org/2000/svg" viewBox="0 0 24 21">
  <g fill="#FFF">
    <path d="M22.5455 16.7273H1.4545c-.3636 0-.7272-.291-.7272-.7273v-.3636C.7273 9.4545 5.8182 4.3636 12 4.3636s11.2727 5.091 11.2727 11.2728V16c0 .4364-.3636.7273-.7272.7273zM2.1818 15.2727h19.6364C21.6 10.0364 17.309 5.8182 12 5.8182c-5.309 0-9.6 4.2182-9.8182 9.4545z"/>
    <path d="M14.5455 5.8182h-4.3637c-.4363 0-.7273-.291-.7273-.7273V4c0-2.2545 1.3091-4 2.9091-4s2.9091 1.7455 2.9091 4v1.091c0 .4363-.2909.7272-.7272.7272zM10.909 4.3636h2.909V4c0-1.5273-.8-2.5455-1.4545-2.5455-.6545 0-1.4545 1.0182-1.4545 2.5455v.3636zM23.2727 20.3636H.7273c-.4364 0-.7273-.2909-.7273-.7272 0-.4364.291-.7273.7273-.7273h22.5454c.4364 0 .7273.2909.7273.7273 0 .4363-.291.7272-.7273.7272z"/>
  </g>
</svg>