<svg
  xmlns="http://www.w3.org/2000/svg" viewBox="0 0 17 22">
  <g fill="#F5A623" fill-rule="nonzero">
    <path d="M8.0001 16c-3.2356 0-6.1527-1.9491-7.391-4.9385C-.629 8.0722.0555 4.6313 2.3434 2.3433 4.6313.0553 8.0722-.629 11.0615.6092 14.051 1.8474 16 4.7645 16 8.0002c-.005 4.416-3.5838 7.9947-7.9999 7.9998zm0-14.6236c-3.6632 0-6.633 2.9696-6.633 6.6329 0 3.6633 2.9698 6.633 6.633 6.633 3.6633 0 6.633-2.9697 6.633-6.633A6.633 6.633 0 0 0 8 1.3672v.0092z"/>
    <path d="M5.2573 22c-.1903-.0002-.3655-.101-.4572-.2631L3.4283 19.278l-2.8367.372c-.2003.026-.398-.0627-.5078-.2276a.4963.4963 0 0 1-.0055-.5436l3.2567-5.081a.5265.5265 0 0 1 .392-.2087.543.543 0 0 1 .4199.1089c1.018.8146 2.2553 1.328 3.5646 1.479.1597.0199.301.1103.3831.245a.4957.4957 0 0 1 .0368.4445l-2.3889 5.816c-.0759.1832-.2542.3071-.4572.3175h-.028zM3.727 18.2165c.1904.0002.3655.101.4573.263l.9985 1.8147 1.7076-4.21c-1.0706-.2127-2.0842-.639-2.9767-1.252l-2.3609 3.6837 2.0903-.2904.084-.009zM11.752 22c-.203-.0104-.3813-.1343-.4572-.3176l-2.3889-5.816a.4957.4957 0 0 1 .0368-.4444.5236.5236 0 0 1 .3831-.245c1.3094-.151 2.5466-.6644 3.5647-1.479a.543.543 0 0 1 .4199-.1089.523.523 0 0 1 .3546.236l3.2567 5.081a.4963.4963 0 0 1-.0055.5435c-.1098.165-.3075.2536-.5078.2277l-2.7994-.3993-1.3997 2.4589c-.0918.1621-.267.2629-.4573.2631zm-1.633-5.9248l1.7077 4.21 1.0078-1.8147c.1033-.1872.3154-.2921.5319-.2631l2.0902.2903-2.3982-3.6656c-.8818.6078-1.882 1.0339-2.9394 1.2522v-.0091zm-1.6143-3.1847c-2.4908 0-4.5113-1.9606-4.5165-4.3824 0-.2806.234-.5081.5226-.5081.2886 0 .5226.2275.5226.5081 0 1.8641 1.5541 3.3752 3.4713 3.3752 1.9171 0 3.4713-1.5111 3.4713-3.3752 0-.2806.234-.5081.5225-.5081.2886 0 .5226.2275.5226.5081-.0051 2.4218-2.0257 4.3824-4.5164 4.3824z"/>
  </g>
</svg>