<svg
  xmlns="http://www.w3.org/2000/svg" viewBox="0 0 23 16">
  <g fill="#D0021B" fill-rule="nonzero">
    <path d="M19.8375 16H2.3C1.0063 16 0 14.7925 0 13.283V2.717C0 1.2075 1.0063 0 2.3 0h17.5375C21.5625 0 23 1.6604 23 3.7736V5.434l-.4312.4528c-1.0063 0-1.725.9057-1.725 2.1132s.7187 1.9623 1.725 2.1132L23 10.566v1.6604C23 14.3396 21.5625 16 19.8375 16zM2.3.9057c-.8625 0-1.4375.7547-1.4375 1.8113v10.717c0 .9056.7188 1.8113 1.4375 1.8113h17.5375c1.2938 0 2.4438-1.2076 2.4438-2.868V10.868C20.9874 10.566 20.125 9.5094 20.125 8s.8625-2.566 2.1563-2.868V3.7737c0-1.5094-1.15-2.868-2.4438-2.868H2.3z"/>
    <path d="M6.44 2.8c-.2933 0-.44-.1444-.44-.4333V1.5c0-.2889.1467-.4333.44-.4333s.44.1444.44.4333v.8667c0 .2889-.1467.4333-.44.4333zm0 9.8222c-.2933 0-.44-.1444-.44-.4333V10.311c0-.2889.1467-.4333.44-.4333s.44.1444.44.4333v1.7333c0 .289-.1467.5778-.44.5778zm0-3.3222c-.2933 0-.44-.1444-.44-.4333V7.1333c0-.2889.1467-.4333.44-.4333s.44.1444.44.4333v1.7334c0 .2889-.1467.4333-.44.4333zm0-3.1778c-.2933 0-.44-.1444-.44-.4333V3.811c0-.2889.1467-.4333.44-.4333s.44.2889.44.4333v1.7333c0 .289-.1467.5778-.44.5778zm0 8.8111c-.2933 0-.44-.1444-.44-.4333v-.8667c0-.2889.1467-.4333.44-.4333s.44.1444.44.4333V14.5c0 .2889-.1467.4333-.44.4333zM14.6533 9.3H16.56c.2933 0 .44.1444.44.4333 0 .289-.1467.4334-.44.4334h-1.9067v1.5889c0 .1444 0 .2888-.1466.4333 0 0-.1467.1444-.2934.1444-.1466 0-.2933 0-.2933-.1444 0 0-.1467-.1445-.1467-.4333v-1.7334h-1.9066c-.2934 0-.44 0-.44-.2889s.1466-.4333.44-.4333h1.9066V8.2889h-1.9066c-.2934 0-.44-.1445-.44-.4333 0-.289.1466-.4334.2933-.4334h1.4667c-.1467-.4333-.44-.8666-.7334-1.3l-.88-1.3c-.1466-.2889-.1466-.4333.1467-.5778.1467 0 .1467-.1444.2933-.1444.1467 0 .1467.1444.2934.2889l1.9066 3.1778h.2934c.2933-.5778.5866-1.0111.88-1.589.2933-.5777.5866-1.011.88-1.5888.1466-.1445.1466-.2889.2933-.2889s.1467 0 .2933.1444c.1467 0 .1467.1445.1467.289 0 .1444 0 .1444-.1467.2888L15.24 7.5667h1.32c.2933 0 .44.1444.44.4333 0 .2889-.1467.4333-.44.4333h-1.9067V9.3z"/>
  </g>
</svg>