<svg
  xmlns="http://www.w3.org/2000/svg" viewBox="0 0 17 18">
  <path fill="#F5A623" fill-rule="nonzero" d="M1.1253 16.8739l7.0019-2.9406 7.0019 2.9406V1.1249H1.1253v15.749zM0 1.1249C0 .5036.5038 0 1.1253 0h14.0038c.6215 0 1.1253.5036 1.1253 1.125v15.7489c0 .8041-.8195 1.3486-1.5611 1.0371l-7.002-2.9405h.8718L1.561 17.911C.8196 18.2225 0 17.678 0 16.874V1.1249zm8.1272 9.6541l2.1963.9997c.448.204.7538-.024.6918-.5051l-.2986-2.317 1.6607-1.7177c.3298-.3411.2247-.7003-.2481-.7884l-2.4022-.4479L8.556 3.9448c-.2326-.4087-.6244-.4099-.8657.0139L6.5284 5.9992l-2.4021.4487c-.4695.0877-.584.4415-.2484.7888l1.6598 1.7177-.2986 2.317c-.0618.4801.2478.7075.6918.5057l2.1963-.998zm.4657 1.0241l-2.1963.998c-1.2443.5655-2.4485-.316-2.2735-1.6735l.2985-2.3169.3067.9253-1.6598-1.7178c-.957-.9903-.5017-2.4234.851-2.676l2.4023-.4488-.7713.5493 1.1619-2.0405c.6682-1.1736 2.153-1.1886 2.8216-.0137l1.1712 2.0578-.7717-.5496 2.4021.448c1.3582.2531 1.8013 1.693.851 2.676l-1.6607 1.7177.307-.9254.2985 2.3168c.175 1.3585-1.0257 2.241-2.2742 1.6727l-2.1963-.9997.932.0003z"/>
</svg>