<svg
  xmlns="http://www.w3.org/2000/svg" viewBox="0 0 20 20">
  <g fill="#D0021B" fill-rule="nonzero">
    <path d="M18 20H2c-1.104-.0013-1.9987-.9002-2-2.0096V7.2727c.0013-1.1093.896-2.0083 2-2.0095h16c1.104.0012 1.9987.9002 2 2.0095v10.7177c-.0013 1.1094-.896 2.0083-2 2.0096zM2 6.6029c-.368.0004-.6663.3-.6667.6698v10.7177c.0004.3698.2987.6695.6667.6699h16c.368-.0004.6663-.3.6667-.6699V7.2727c-.0004-.3698-.2987-.6694-.6667-.6698H2z"/>
    <path d="M19.3356 16.8421h-4.6504c-1.1002-.0013-1.9918-.9226-1.993-2.0596v-4.1192c.0012-1.137.8928-2.0583 1.993-2.0596h4.6504c.367 0 .6644.3074.6644.6866v6.8653c0 .3791-.2974.6865-.6644.6865zm-4.6504-6.8653c-.3668.0004-.664.3075-.6644.6865v4.1192c.0004.379.2976.6861.6644.6865h3.9861V9.9768h-3.9861zM3.8216 6.5446c-.2373-.0003-.4563-.1313-.5748-.3436a.7066.7066 0 0 1 0-.6863l1.918-3.4328c.5511-.984 1.769-1.3212 2.7225-.7539l1.1507.6866c.4404.2618.767.6882.9123 1.1913.1055.3631-.0939.746-.4453.855-.3514.109-.7218-.0971-.8273-.4603a.6802.6802 0 0 0-.304-.3969l-1.1508-.6865c-.3178-.1891-.7237-.0767-.9075.2512L4.3975 6.2012c-.1187.2127-.3383.3437-.576.3434z"/>
    <path d="M14.5957 6.313c-.2719 0-.517-.1538-.621-.3896-.104-.236-.0465-.5075.1457-.688l1.1814-1.1096c.2621-.2467.2621-.646 0-.8928l-1.9012-1.7855c-.126-.1184-.297-.185-.4753-.185-.1783 0-.3492.0666-.4753.185L7.4662 6.1282c-.1695.161-.4178.2246-.6509.1664-.233-.0582-.415-.2291-.477-.448-.0619-.2188.0057-.452.1773-.6112L11.4994.5547c.7875-.7396 2.0643-.7396 2.8518 0l1.9012 1.7856c.7863.74.7863 1.9382 0 2.6783L15.071 6.1282c-.126.1185-.297.185-.4753.1849zM15.7895 12.6316c0 .5813.4713 1.0526 1.0526 1.0526.5814 0 1.0526-.4713 1.0526-1.0526 0-.5814-.4712-1.0527-1.0526-1.0527-.5813 0-1.0526.4713-1.0526 1.0527z"/>
  </g>
</svg>