<svg
  xmlns="http://www.w3.org/2000/svg" viewBox="0 0 18 18">
  <path fill="#4A4A4A" fill-rule="nonzero" d="M18 11.475v.5625c0 .225-.1115.45-.223.675-.1115.225-.223.45-.3345.5625-.1115.225-.223.3375-.446.3375-.1114.1125-.3344.1125-.446.1125-.1114 0-.2229 0-.3344-.1125-.1115 0-.3345-.1125-.446-.1125h-.5574c-.223 0-.446.1125-.5575.1125-.223.1125-.3345.225-.5575.3375-.3345.3375-.446.675-.5574 1.125 0 .45 0 .7875.223 1.125.1114.225.1114.5625-.1115.7875l-.3345.3375c-.1115.1125-.3345.225-.5575.3375-.223.1125-.446.1125-.669.225-.223 0-.446.1125-.5574.1125-.1115 0-.223 0-.3345-.1125-.1115-.1125-.223-.225-.223-.3375-.1115-.45-.3345-.7875-.669-1.0125-.3344-.3375-.7804-.45-1.2264-.45-.446 0-.7804.1125-1.2264.45-.3345.3375-.5575.675-.7805 1.0125-.1115.1125-.1115.225-.3344.3375 0 .1125-.1115.1125-.3345.1125-.223 0-.3345 0-.5575-.1125-.223-.1125-.446-.1125-.669-.225-.223-.1125-.446-.225-.5574-.3375-.223-.1125-.3345-.225-.446-.3375-.1115-.1125-.1115-.225-.1115-.3375 0-.1125 0-.3375.1115-.5625.1115-.3375.223-.675.1115-1.0125 0-.3375-.223-.7875-.446-1.0125-.223-.225-.446-.3375-.669-.3375-.223-.1125-.4459-.1125-.7804-.1125-.223 0-.5575.1125-.7804.1125H1.053c-.1115 0-.223-.225-.446-.3375l-.3345-.675c-.1115-.225-.223-.45-.223-.675 0-.225-.1114-.45 0-.5625 0-.3375.1115-.45.3345-.5625.5575-.1125.892-.45 1.2265-.7875.3344-.3375.446-.7875.446-1.125 0-.45-.1116-.9-.446-1.125C1.276 7.425.9415 7.2.607 7.0875L.2725 6.75C.161 6.6375.161 6.4125.161 6.3c0-.1125 0-.3375.1115-.5625 0-.225.1115-.45.223-.5625.1115-.225.223-.3375.3345-.5625 0-.1125.1115-.225.223-.3375.1115-.1125.223-.1125.3345-.1125.1115 0 .223 0 .3345.1125.3344.1125.7804.225 1.1149.1125.446-.1125.7804-.225 1.115-.5625.1114-.1125.223-.3375.3344-.5625.1115-.225.1115-.45.1115-.675V2.025v-.3375c0-.1125 0-.1125-.1115-.225v-.225c.1115-.3375.3345-.45.446-.675l.669-.3375c.223-.1125.446-.1125.6689-.225h.5575c.1115 0 .223 0 .3344.1125.1115.1125.1115.225.223.3375.1115.45.3345.675.669 1.0125.3345.225.669.45 1.115.45.4459 0 .8919-.1125 1.2264-.3375.3344-.225.5574-.5625.7804-1.0125 0-.1125.1115-.225.223-.3375.1115-.225.223-.225.3345-.225.223 0 .3345 0 .5574.1125.223 0 .446.1125.669.225.223.1125.446.225.5575.3375.1115.1125.223.225.3345.45.1114.1125.1114.225.1114.3375 0 .1125 0 .225-.1114.225-.1115.3375-.223.7875-.1115 1.125.1115.45.223.7875.5574 1.125.3345.3375.669.45 1.115.5625.446 0 .892 0 1.2264-.225.1115-.1125.223-.1125.3345-.1125.1115 0 .223.1125.3345.225.223.225.3344.45.5574.7875.1115.3375.223.7875.3345 1.125 0 .225 0 .3375-.1115.5625-.1115.1125-.223.225-.3345.225-.446.1125-.7804.3375-1.0034.7875-.3345.3375-.446.7875-.446 1.2375 0 .45.1115.7875.3345 1.125.223.3375.5575.5625.892.675.1114 0 .1114.1125.223.1125.223.1125.3344.225.4459.45zm-8.9195 1.6875c.5575 0 1.115-.1125 1.6724-.3375.5575-.225 1.0035-.5625 1.338-.9.3344-.3375.669-.7875.8919-1.35.1115-.45.223-1.0125.223-1.575s-.1115-1.125-.3345-1.6875c-.223-.5625-.5575-.9-.892-1.35-.3344-.3375-.7804-.675-1.3379-.9-.446-.225-1.0034-.3375-1.5609-.3375-.5574 0-1.115.1125-1.6724.3375-.446.225-.892.5625-1.3379.9-.3345.45-.669.9-.892 1.35-.1114.5625-.223 1.125-.223 1.6875s.1116 1.125.3345 1.6875c.223.5625.5575 1.0125.892 1.35.3345.3375.7804.675 1.338.9.4459.1125 1.0034.225 1.5608.225z"/>
</svg>