<svg
  xmlns="http://www.w3.org/2000/svg" viewBox="0 0 20 20">
  <path d="M12.2174 2.625c0 .8975.7592 1.625 1.6956 1.625.9365 0 1.6957-.7275 1.6957-1.625S14.8495 1 13.913 1c-.9364 0-1.6956.7275-1.6956 1.625zM5.6981 7.4783c.8868-1.0466 1.6202-1.5699 2.2002-1.5699h2.3687c-.8316 2.1362-1.598 3.583-2.299 4.3402-1.0515 1.136-1.5827 1.667-3.3227 1.667-1.16 0-2.175-.5557-3.0449-1.667L1 11.0636c1.3162 1.5179 2.6351 2.3805 3.9568 2.588 2.1956.3446 3.3869-.5758 4.4734-1.3193.87.4167 3.4249 1.2052 3.207 2.8608-.1452 1.1036-.5529 2.3726-1.223 3.8069h1.496c.7867-1.151 1.325-2.5599 1.615-4.2268.29-1.667-.8357-3.128-3.3773-4.3833l1.6496-1.9952c.5164 1.3317 1.2096 2.1365 2.0795 2.4143.87.2778 2.2443-.0479 4.123-.9771l-.435-.8335c-1.4875.358-2.5212.3981-3.1012.1203-.87-.4167-.6494-1.4981-1.3113-2.5939-.7309-1.2098-1.2424-1.6826-2.0354-2.1344-.793-.452-3.9274-.6617-5.2368.2177-.8728.5862-1.5378 1.4125-1.995 2.4788l.8128.3914z"/>
</svg>